<svg 
  viewBox="0 0 267 101" 
  fill="none" 
  xmlns="http://www.w3.org/2000/svg"
  aria-hidden="true" 
  focusable="false"
>
  <!-- Group paths to apply common stroke styles efficiently -->
  <g 
    stroke="currentColor"
    stroke-miterlimit="10" 
    stroke-linecap="round" 
    stroke-linejoin="round"
  >
    <!-- Path data remains unchanged -->
    <path d="M85.8753 1L84.2572 100.209C84.2572 100.209 73.9228 67.5148 41.2979 59.0684C13.3733 51.8389 1 56.9541 1 57.893C1 64.6843 219.956 59.9516 219.956 59.9516"/>
    <path d="M90.4456 55.7753C93.1617 53.894 99.9282 45.3154 98.5975 44.9607C97.2668 44.6095 94.1469 56.1856 95.1869 56.1856C97.9612 56.1856 115.267 27.7826 113.198 26.8889C110.482 25.7136 98.3101 74.2296 103.746 74.5808C107.553 74.8277 108.545 54.0679 103.831 51.6581C110.482 50.601 123.953 26.3569 121.435 26.3569C118.917 26.3569 109.9 67.5253 112.589 67.5253C115.278 67.5253 114.539 53.6402 112.329 51.3938C112.329 51.3938 125.25 42.6657 130.887 35.4362C130.887 35.4362 122.475 54.3009 130.887 55.3615C139.299 56.4186 154.303 25.651 150.749 17.3644C147.194 9.07789 135.7 7.18273 127.507 22.3023C119.311 37.4218 128.462 51.1295 153.007 38.3468"/>
    <path d="M153.178 36.9836C153.178 36.9836 152.678 38.5276 153.373 39.23C154.067 39.9324 144.136 52.9343 147.164 53.8071C149.463 54.4678 157.57 43.1699 157.57 43.1699C157.57 43.1699 151.672 53.5428 154.016 54.2487C156.359 54.9546 172.085 26.3916 171.158 26.096C170.234 25.8005 157.974 54.1305 160.519 54.8955C163.064 55.6605 168.496 45.3154 168.496 45.3154C168.496 45.3154 165.373 53.0734 166.242 53.3655C167.111 53.6576 170.432 50.281 170.432 50.281C170.432 50.281 168.725 55.9526 169.827 55.9526C170.929 55.9526 173.874 49.2518 173.641 44.5504C173.641 44.5504 177.863 41.7893 182.142 41.4347C182.142 41.4347 173.699 53.0803 175.666 54.0714C177.069 54.7773 181.738 47.8399 181.738 47.8399C181.738 47.8399 179.611 55.1215 181.218 55.3023C183.661 55.5805 191.454 43.9001 191.454 43.9001C191.454 43.9001 188.505 51.8354 189.025 53.129L198.217 42.8013C198.217 42.8013 182.402 98.5294 165.667 95.8274C152.374 93.6819 189.083 53.9531 205.907 48.0451C205.907 48.0451 206.177 54.0262 211.921 54.8329C220.709 56.0674 242.794 46.6785 254.706 46.6785C264.825 46.6785 265.69 53.8314 265.69 53.8314"/>
  </g>
</svg>
